<?xml version="1.0" encoding="UTF-8"?>
<svg id="Capa_1" xmlns="http://www.w3.org/2000/svg" version="1.1" viewBox="0 0 94.91 15">
  <!-- Generator: Adobe Illustrator 29.7.1, SVG Export Plug-In . SVG Version: 2.1.1 Build 8)  -->
  <defs>
    <style>
      .st0, .st1 {
        fill: #231f20;
      }

      .st1 {
        fill-rule: evenodd;
      }
    </style>
  </defs>
  <path class="st1" d="M27.85,7.69h-.67c-.59.02-1.02.17-1.24.49-.19.28-.28.57-.26.85.03.59.51.94,1.07.95.28,0,.55-.08.78-.21.22-.12.4-.25.54-.37l.14-.13v-1.58h-.35ZM24.97,4.11l.16-.1c.51-.31,1.13-.44,1.72-.45,1.01.02,1.75.3,2.24.83.5.53.75,1.21.75,2.05v4.23s-1.23,0-1.23,0l-.13.13c-.15.15-.38.3-.69.45-.3.15-.66.23-1.11.24-.9,0-1.76-.44-2.28-1.19-.25-.36-.38-.79-.39-1.27.02-1.74,1.63-2.53,3.18-2.54h1.02v-.13c0-.85-.53-1.3-1.35-1.3-.2,0-.42.03-.68.09-.21.05-.42.14-.62.25l-.58-1.28h0Z"/>
  <path class="st1" d="M2.46,5.49c-.22.19-.38.42-.49.67-.11.24-.18.46-.22.65l-.04.21v.06c-.02.07,0,.11.02.18h.1c.76,0,1.49-.1,2.11-.56.64-.48.34-1.48-.59-1.53-.35.01-.66.11-.89.32h0ZM3.34,11.49h-.06C1.17,11.41.01,9.48,0,7.53c.01-1.95,1.21-3.93,3.34-3.96.8,0,1.9.44,2.32,1.4.49,1.13-.11,2.19-.67,2.61-.75.57-1.67.86-2.79.87h-.45c.11.48.29.86.68,1.18.23.19.64.4,1.01.41.56-.01,1.21-.37,1.58-.78l.92,1.33c-.34.29-.7.51-1.1.66-.43.17-1.06.25-1.5.25h0Z"/>
  <path class="st1" d="M48.83,7.69h-.67c-.59.02-1.02.17-1.24.49-.19.28-.28.57-.26.85.03.59.51.94,1.07.95.28,0,.55-.08.78-.21.22-.12.4-.25.54-.37l.14-.13v-1.58h-.35ZM45.95,4.11l.16-.1c.51-.31,1.13-.44,1.72-.45,1.01.02,1.75.3,2.24.83.5.53.75,1.21.75,2.05v4.23h-1.23l-.13.13c-.15.15-.38.3-.69.45-.3.15-.66.23-1.11.24-.9,0-1.76-.44-2.28-1.19-.25-.36-.38-.79-.39-1.27.02-1.74,1.63-2.53,3.18-2.54h1.02v-.13c0-.85-.53-1.3-1.35-1.3-.2,0-.42.03-.68.09-.21.05-.42.14-.62.25l-.58-1.28h0Z"/>
  <path class="st1" d="M38.31,9.49c.58-.47.84-1.24.84-1.97,0-.73-.27-1.49-.84-1.97-.28-.23-.62-.35-1.01-.36-.39,0-.73.12-1.01.36-.27.23-.48.52-.62.87-.14.35-.21.71-.21,1.1,0,.39.07.75.21,1.1.14.35.35.64.62.87.28.23.62.35,1.01.36.39,0,.73-.13,1.01-.36h0ZM39.15,10.92l-.28-.05-.17.13c-.14.1-.33.21-.58.32-.24.1-.52.16-.83.17-2.07-.04-3.49-2.02-3.51-3.96,0-.71.16-1.36.45-1.96.6-1.21,1.69-1.98,3.06-2,.5.01.91.1,1.25.26.3.14.58.3.83.52h1.41v6.86c0,1.3-.61,2.53-1.7,3.26-.52.35-1.12.53-1.79.54-.63,0-1.18-.1-1.65-.32-.44-.2-.84-.52-1.2-.97l1.06-1.29c.39.65,1,.96,1.8.93.56-.04,1.01-.27,1.35-.69.33-.41.49-.9.5-1.46v-.28h0Z"/>
  <path class="st0" d="M8.48,7.82l.75.33c.43.18,1.12.5,1.17,1.04,0,.65-.6.84-1.14.84-.56-.01-1.21-.37-1.58-.78l-.92,1.33c.34.29.7.51,1.1.66.43.17.87.25,1.32.25,1.35-.01,2.77-.91,2.79-2.37-.02-1.04-.47-1.67-1.42-2.05l-.75-.33-.49-.2c-.19-.08-.36-.17-.5-.28-.16-.12-.25-.29-.26-.48.02-.57.58-.72,1.05-.72.49,0,.88.19,1.24.52l.92-1.2c-.23-.2-.51-.37-.87-.53-.39-.17-.85-.26-1.38-.27-.43,0-.84.1-1.23.28-.39.18-.7.44-.94.77-.24.32-.36.71-.37,1.16.01.6.17,1.03.45,1.33.29.31.65.56,1.06.72h0Z"/>
  <path class="st0" d="M17.36,3.8c-.35-.2-.59-.26-.99-.27-.35.01-.68.12-1.01.31-.28.16-.54.34-.79.55h-1.64v6.29h1.64v-3.96s.02-.05.03-.08l.04-.07.16-.25c.14-.22.33-.44.57-.66.24-.22.51-.36.84-.38.84.04.94.71.9,1.39v4.01h1.64v-3.96s.02-.05.03-.08l.04-.07.16-.25c.14-.22.33-.44.57-.66.24-.22.51-.36.84-.38.84.04.94.71.9,1.39v4.01h1.64v-4.91c-.02-.69-.26-1.22-.71-1.61-.45-.4-1-.6-1.66-.61-.35.01-.68.11-1,.29-.33.19-.6.38-.81.56,0,0-.16.13-.24.22-.07.08-.18.22-.18.22,0,0-.11-.17-.18-.28-.25-.34-.41-.55-.78-.75h0Z"/>
  <polygon class="st0" points="32.85 10.67 32.85 0 31.17 .35 31.17 10.67 32.85 10.67 32.85 10.67"/>
  <polygon class="st0" points="43.91 10.67 43.91 0 42.23 .35 42.23 10.67 43.91 10.67 43.91 10.67"/>
  <path class="st0" d="M53.56,7.82l.75.33c.43.18,1.12.5,1.17,1.04,0,.65-.6.84-1.14.84-.56-.01-1.21-.37-1.58-.78l-.92,1.33c.34.29.7.51,1.1.66.43.17.87.25,1.32.25,1.35-.01,2.77-.91,2.79-2.37-.02-1.04-.47-1.67-1.42-2.05l-.75-.33-.49-.2c-.19-.08-.36-.17-.5-.28-.16-.12-.25-.29-.26-.48.02-.57.58-.72,1.05-.72.49,0,.88.19,1.24.52l.92-1.2c-.23-.2-.51-.37-.87-.53-.39-.17-.85-.26-1.38-.27-.43,0-.84.1-1.23.28-.38.18-.7.44-.94.77-.24.32-.36.71-.37,1.16.01.6.17,1.03.45,1.33.29.31.65.56,1.06.72h0Z"/>
  <path class="st0" d="M59.31,7.82l.75.33c.43.18,1.12.5,1.17,1.04,0,.65-.6.84-1.14.84-.56-.01-1.21-.37-1.58-.78l-.92,1.33c.34.29.7.51,1.1.66.43.17.87.25,1.32.25,1.35-.01,2.77-.91,2.79-2.37-.02-1.04-.47-1.67-1.42-2.05l-.75-.33-.49-.2c-.19-.08-.36-.17-.5-.28-.16-.12-.25-.29-.26-.48.02-.57.58-.72,1.05-.72.49,0,.88.19,1.24.52l.92-1.2c-.23-.2-.51-.37-.87-.53-.39-.17-.85-.26-1.38-.27-.44,0-.84.1-1.23.28-.39.18-.7.44-.94.77-.24.32-.36.71-.37,1.16.01.6.17,1.03.45,1.33.29.31.65.56,1.06.72h0Z"/>
  <path class="st0" d="M76.77,4.11l.58,1.28c.2-.11.4-.2.62-.25.25-.06.48-.09.68-.09.83,0,1.35.45,1.35,1.3v.13s-.47,0-.47,0h-.55c-1.55,0-3.15.8-3.18,2.54,0,.49.14.91.39,1.27.52.75,1.38,1.18,2.28,1.19.44-.01.81-.09,1.11-.24.31-.16.54-.31.69-.45l.13-.13h1.23v-4.23c0-.84-.25-1.51-.75-2.05-.49-.53-1.23-.81-2.24-.83-.58.01-1.21.14-1.72.45l-.16.1h0ZM79.65,7.69h.35v1.58l-.14.13c-.14.13-.32.25-.54.37-.23.13-.5.2-.78.21-.56,0-1.05-.36-1.07-.95-.02-.28.07-.57.26-.85.21-.32.65-.47,1.24-.49h.26s.41,0,.41,0h0Z"/>
  <path class="st0" d="M70.54,4.38v1.19h1.42v3.84c0,.67.02.8.12,1.09.2.57.91.99,1.85.99.45,0,.91-.08,1.41-.28l-.19-.9c-.26.07-.42.11-.59.11-.77,0-.97-.35-.97-1.31v-3.54h1.13l.33-1.19h-1.46v-2.31l-1.64.35v1.96h-1.42Z"/>
  <path class="st0" d="M90.04,4.11l.58,1.28c.2-.11.4-.2.62-.25.25-.06.48-.09.68-.09.83,0,1.35.45,1.35,1.3v.13s-.47,0-.47,0h-.55c-1.55,0-3.15.8-3.18,2.54,0,.49.14.91.39,1.27.52.75,1.38,1.18,2.28,1.19.44-.01.81-.09,1.11-.24.31-.16.54-.31.69-.45l.13-.13h1.23v-4.23c0-.84-.25-1.51-.75-2.05-.49-.53-1.23-.81-2.24-.83-.58.01-1.21.14-1.72.45l-.16.1h0ZM92.92,7.69h.35v1.58l-.14.13c-.14.13-.32.25-.54.37-.23.13-.5.2-.78.21-.56,0-1.05-.36-1.07-.95-.02-.28.07-.57.26-.85.22-.32.65-.47,1.24-.49h.26s.41,0,.41,0h0Z"/>
  <polygon class="st0" points="69.5 10.67 69.5 4.41 67.83 4.77 67.83 10.67 69.5 10.67 69.5 10.67"/>
  <path class="st0" d="M68.67,1.23c-.57,0-1.03.46-1.03,1.03s.46,1.03,1.03,1.03,1.03-.46,1.03-1.03-.46-1.03-1.03-1.03h0Z"/>
  <path class="st0" d="M82.99,5.56c.29-.6.69-1.08,1.2-1.45.51-.36,1.1-.55,1.78-.56,1.05,0,1.88.28,2.58,1l-1.17,1.26c-.36-.42-.83-.63-1.42-.62-.38,0-.71.13-.98.36-.26.23-.45.52-.58.87-.13.35-.19.71-.19,1.09,0,.38.06.74.19,1.09.13.35.32.64.58.87.27.24.6.36.98.36.58.01,1.06-.2,1.42-.62l1.17,1.26c-.7.72-1.53,1.01-2.58,1-.68-.01-1.27-.2-1.78-.56-1.09-.78-1.64-2.08-1.65-3.4,0-.71.15-1.36.44-1.95h0Z"/>
  <path class="st0" d="M65.31,6.71c-.45,0-.82.37-.82.82s.37.82.82.82.82-.37.82-.82-.37-.82-.82-.82h0Z"/>
</svg>